<svg aria-hidden="true" style="width:0;height:0;position:absolute;overflow:hidden" xmlns="http://www.w3.org/2000/svg"><defs><symbol id="close" viewBox="0 0 32 32"><path d="m17.253 16 7.37-7.369a.889.889 0 0 0-1.255-1.252l.001-.001-7.37 7.369-7.368-7.378A.893.893 0 1 0 7.368 8.63l.001.001 7.378 7.37-7.378 7.369a.889.889 0 1 0 1.252 1.254l.001-.001L16 17.254l7.369 7.37a.889.889 0 0 0 1.252-1.255l.001.001-7.369-7.369z"/></symbol><symbol id="heart" viewBox="0 0 35 32"><path d="m17.684 32-2.565-2.302C6.012 21.555 0 16.186 0 9.592 0 4.219 4.28 0 9.726 0c3.077 0 6.029 1.413 7.958 3.645A10.636 10.636 0 0 1 25.638 0h.003c5.447 0 9.726 4.221 9.726 9.592 0 6.592-6.013 11.963-15.119 20.125l-2.565 2.284z"/><path d="m17.684 28.632-2.075-1.817C8.236 20.386 3.368 16.146 3.368 10.941c0-4.241 3.464-7.572 7.874-7.572 2.491 0 4.881 1.115 6.442 2.877a8.7 8.7 0 0 1 6.441-2.877h.002c4.409 0 7.874 3.331 7.874 7.572 0 5.204-4.867 9.443-12.241 15.887l-2.075 1.804z"/></symbol><symbol id="menu" viewBox="0 0 60 32"><path d="M2 0h56a2 2 0 1 1 0 4H2a2 2 0 1 1 0-4zM2 14h56a2 2 0 1 1 0 4H2a2 2 0 1 1 0-4zM2 28h56a2 2 0 1 1 0 4H2a2 2 0 1 1 0-4z"/></symbol><symbol id="search" viewBox="0 0 32 32"><path d="M13.333 24a10.56 10.56 0 0 0 6.552-2.268l-.023.017 5.861 5.861 1.885-1.885-5.861-5.861a10.535 10.535 0 0 0 2.252-6.531c0-5.881-4.785-10.667-10.667-10.667S2.665 7.451 2.665 13.333 7.45 24 13.332 24zm0-18.667c4.412 0 8 3.588 8 8s-3.588 8-8 8-8-3.588-8-8 3.588-8 8-8z"/></symbol><symbol id="icon-arrow" viewBox="0 0 52 32"><path fill="#fd5103" d="M3.372 6.375 26 29.003 48.628 6.375 45.8 3.547 26 23.347 6.2 3.547 3.372 6.375z"/></symbol></defs></svg>