<svg aria-hidden="true" style="width:0;height:0;position:absolute;overflow:hidden" xmlns="http://www.w3.org/2000/svg"><defs><symbol id="close" fill="currentColor" viewBox="0 0 32 32"><path d="m17.253 16 7.37-7.369a.889.889 0 0 0-1.255-1.252l.001-.001-7.37 7.369-7.368-7.378A.893.893 0 1 0 7.368 8.63l.001.001 7.378 7.37-7.378 7.369a.889.889 0 1 0 1.252 1.254l.001-.001L16 17.254l7.369 7.37a.889.889 0 0 0 1.252-1.255l.001.001-7.369-7.369z"/></symbol><symbol id="heart" viewBox="0 0 19 17"><path d="m9.5 17-1.377-1.223C3.23 11.451 0 8.597 0 5.095 0 2.242 2.299 0 5.225 0 6.878 0 8.465.75 9.5 1.936A5.749 5.749 0 0 1 13.775 0C16.701 0 19 2.242 19 5.095c0 3.502-3.23 6.356-8.123 10.691L9.5 17Z" fill="#FD5103"/><path fill="currentColor" d="m9.5 15.21-1.115-.965C4.425 10.83 1.81 8.577 1.81 5.812c0-2.252 1.86-4.022 4.23-4.022 1.337 0 2.622.592 3.46 1.528.838-.936 2.123-1.528 3.46-1.528 2.37 0 4.23 1.77 4.23 4.022 0 2.765-2.614 5.018-6.575 8.44l-1.115.959Z"/></symbol><symbol id="menu" fill="currentColor" viewBox="0 0 60 32"><path d="M2 0h56a2 2 0 1 1 0 4H2a2 2 0 1 1 0-4zM2 14h56a2 2 0 1 1 0 4H2a2 2 0 1 1 0-4zM2 28h56a2 2 0 1 1 0 4H2a2 2 0 1 1 0-4z"/></symbol><symbol id="search" viewBox="0 0 32 32"><path d="M13.333 24a10.56 10.56 0 0 0 6.552-2.268l-.023.017 5.861 5.861 1.885-1.885-5.861-5.861a10.535 10.535 0 0 0 2.252-6.531c0-5.881-4.785-10.667-10.667-10.667S2.665 7.451 2.665 13.333 7.45 24 13.332 24zm0-18.667c4.412 0 8 3.588 8 8s-3.588 8-8 8-8-3.588-8-8 3.588-8 8-8z"/></symbol><symbol id="arrow" viewBox="0 0 52 32"><path fill="currentColor" d="M3.372 6.375 26 29.003 48.628 6.375 45.8 3.547 26 23.347 6.2 3.547 3.372 6.375z"/></symbol></defs></svg>