<svg aria-hidden="true" style="position: absolute; width: 0; height: 0; overflow: hidden;" version="1.1" xmlns="http://www.w3.org/2000/svg" xmlns:xlink="http://www.w3.org/1999/xlink">
<defs>
<symbol id="close" viewBox="0 0 32 32">
<path d="M17.253 16l7.37-7.369c0.138-0.156 0.223-0.362 0.223-0.588 0-0.49-0.398-0.888-0.888-0.888-0.226 0-0.433 0.085-0.59 0.224l0.001-0.001-7.37 7.369-7.368-7.378c-0.164-0.18-0.399-0.292-0.661-0.292-0.493 0-0.893 0.4-0.893 0.893 0 0.261 0.112 0.496 0.291 0.66l0.001 0.001 7.378 7.37-7.378 7.369c-0.193 0.164-0.314 0.407-0.314 0.678 0 0.491 0.398 0.889 0.889 0.889 0.271 0 0.514-0.121 0.677-0.313l0.001-0.001 7.378-7.369 7.369 7.37c0.154 0.133 0.357 0.214 0.578 0.214 0.491 0 0.889-0.398 0.889-0.889 0-0.221-0.081-0.424-0.215-0.58l0.001 0.001-7.369-7.369z"></path>
</symbol>
<symbol id="heart" viewBox="0 0 35 32">
<path d="M17.684 32l-2.565-2.302c-9.107-8.143-15.119-13.512-15.119-20.106 0-5.373 4.28-9.592 9.726-9.592 3.077 0 6.029 1.413 7.958 3.645 1.949-2.223 4.788-3.625 7.954-3.645l0.003-0c5.447 0 9.726 4.221 9.726 9.592 0 6.592-6.013 11.963-15.119 20.125l-2.565 2.284z"></path>
<path d="M17.684 28.632l-2.075-1.817c-7.373-6.429-12.241-10.669-12.241-15.874 0-4.241 3.464-7.572 7.874-7.572 2.491 0 4.881 1.115 6.442 2.877 1.595-1.763 3.889-2.868 6.441-2.877h0.002c4.409 0 7.874 3.331 7.874 7.572 0 5.204-4.867 9.443-12.241 15.887l-2.075 1.804z"></path>
</symbol>
<symbol id="menu" viewBox="0 0 60 32">
<path d="M2 0h56c1.105 0 2 0.895 2 2s-0.895 2-2 2h-56c-1.105 0-2-0.895-2-2s0.895-2 2-2z"></path>
<path d="M2 14h56c1.105 0 2 0.895 2 2s-0.895 2-2 2h-56c-1.105 0-2-0.895-2-2s0.895-2 2-2z"></path>
<path d="M2 28h56c1.105 0 2 0.895 2 2s-0.895 2-2 2h-56c-1.105 0-2-0.895-2-2s0.895-2 2-2z"></path>
</symbol>
<symbol id="search" viewBox="0 0 32 32">
<path d="M13.333 24c2.473-0.001 4.749-0.848 6.552-2.268l-0.023 0.017 5.861 5.861 1.885-1.885-5.861-5.861c1.404-1.781 2.251-4.057 2.252-6.531v-0c0-5.881-4.785-10.667-10.667-10.667s-10.667 4.785-10.667 10.667 4.785 10.667 10.667 10.667zM13.333 5.333c4.412 0 8 3.588 8 8s-3.588 8-8 8-8-3.588-8-8 3.588-8 8-8z"></path>
</symbol>
</defs>
</svg>
