<svg aria-hidden="true" style="position: absolute; width: 0; height: 0; overflow: hidden;" version="1.1" xmlns="http://www.w3.org/2000/svg" xmlns:xlink="http://www.w3.org/1999/xlink">
<defs>
<symbol id="close" viewBox="0 0 32 32">
<path d="M17.253 16l7.37-7.369c0.138-0.156 0.223-0.362 0.223-0.588 0-0.49-0.398-0.888-0.888-0.888-0.226 0-0.433 0.085-0.59 0.224l0.001-0.001-7.37 7.369-7.368-7.378c-0.164-0.18-0.399-0.292-0.661-0.292-0.493 0-0.893 0.4-0.893 0.893 0 0.261 0.112 0.496 0.291 0.66l0.001 0.001 7.378 7.37-7.378 7.369c-0.193 0.164-0.314 0.407-0.314 0.678 0 0.491 0.398 0.889 0.889 0.889 0.271 0 0.514-0.121 0.677-0.313l0.001-0.001 7.378-7.369 7.369 7.37c0.154 0.133 0.357 0.214 0.578 0.214 0.491 0 0.889-0.398 0.889-0.889 0-0.221-0.081-0.424-0.215-0.58l0.001 0.001-7.369-7.369z"></path>
</symbol>
<symbol id="heart" viewBox="0 0 19 17" >
  <path  d="M9.5 17L8.1225 15.7771C3.23 11.4507 0 8.59727 0 5.09537C0 2.24196 2.299 0 5.225 0C6.878 0 8.4645 0.750409 9.5 1.93624C10.5355 0.750409 12.122 0 13.775 0C16.701 0 19 2.24196 19 5.09537C19 8.59727 15.77 11.4507 10.8775 15.7864L9.5 17Z" fill="#FD5103"/>
  <path fill="currentColor"  d="M9.50005 15.2106L8.38493 14.2452C4.42433 10.8296 1.80957 8.57687 1.80957 5.81221C1.80957 3.55952 3.67067 1.78955 6.03933 1.78955C7.37748 1.78955 8.66178 2.38198 9.50005 3.31816C10.3383 2.38198 11.6226 1.78955 12.9608 1.78955C15.3294 1.78955 17.1905 3.55952 17.1905 5.81221C17.1905 8.57687 14.5758 10.8296 10.6152 14.2525L9.50005 15.2106Z" />
</symbol>
<symbol id="menu" viewBox="0 0 60 32">
<path d="M2 0h56c1.105 0 2 0.895 2 2s-0.895 2-2 2h-56c-1.105 0-2-0.895-2-2s0.895-2 2-2z"></path>
<path d="M2 14h56c1.105 0 2 0.895 2 2s-0.895 2-2 2h-56c-1.105 0-2-0.895-2-2s0.895-2 2-2z"></path>
<path d="M2 28h56c1.105 0 2 0.895 2 2s-0.895 2-2 2h-56c-1.105 0-2-0.895-2-2s0.895-2 2-2z"></path>
</symbol>
<symbol id="search" viewBox="0 0 32 32">
<path d="M13.333 24c2.473-0.001 4.749-0.848 6.552-2.268l-0.023 0.017 5.861 5.861 1.885-1.885-5.861-5.861c1.404-1.781 2.251-4.057 2.252-6.531v-0c0-5.881-4.785-10.667-10.667-10.667s-10.667 4.785-10.667 10.667 4.785 10.667 10.667 10.667zM13.333 5.333c4.412 0 8 3.588 8 8s-3.588 8-8 8-8-3.588-8-8 3.588-8 8-8z"></path>
</symbol>
<symbol id="arrow" viewBox="0 0 52 32">
<path d="M3.372 6.375l22.628 22.628 22.628-22.628-2.828-2.828-19.8 19.8-19.8-19.8-2.828 2.828z"></path>
</symbol>
</defs>
</svg>
